<svg xmlns="http://www.w3.org/2000/svg" width="100" height="100" viewBox="0 0 100 100" xml:space="preserve">
  <path fill="#77b59e" d="M100 16.677C100 7.467 92.538 0 83.334 0H16.666C7.461 0 0 7.467 0 16.677v66.645C0 92.533 7.461 100 16.666 100h66.668C92.538 100 100 92.533 100 83.322V16.677zm-46 64.86c0 2.369-1.631 4.309-4 4.309-2.368 0-4-1.939-4-4.309V48.824c0-2.369 1.632-4.308 4-4.308 2.396 0 4 1.938 4 4.308v32.713zm14-12.924c0 2.369-2.131 4.309-4.5 4.309s-4.5-1.94-4.5-4.309V38.566L55.57 33H44.427L41 38.566v30.076c0 2.367-2.131 4.307-4.5 4.307S32 71.01 32 68.643v-31.45c0-.916.304-1.804.843-2.531l13.558-18.839C47.263 14.666 48.599 14 49.945 14h.135c1.346 0 2.665.666 3.498 1.823L67.157 34.64c.537.726.843 1.637.843 2.526v31.447z"/>
</svg>