<svg xmlns="http://www.w3.org/2000/svg" width="100" height="100" viewBox="0 0 100 100" xml:space="preserve">
  <g fill="#77b59e">
    <path d="M67.106 25H60v50h7.196C72.235 75 75 71.688 75 65.929V33.531C75 27.771 72.235 25 67.106 25z"/>
    <path d="M100 16.677C100 7.467 92.538 0 83.334 0H16.666C7.461 0 0 7.467 0 16.677v66.645C0 92.533 7.461 100 16.666 100h66.668C92.538 100 100 92.533 100 83.322V16.677zM47 25H29v23h14v6H29v27h-7V18h25v7zm35 40.659C82 75.289 77.096 81 67.286 81H53V18h14.286C77.096 18 82 24.171 82 33.891v31.768z"/>
  </g>
</svg>