<svg xmlns="http://www.w3.org/2000/svg" width="100" height="100" viewBox="0 0 100 100" xml:space="preserve">
  <path fill="#77b59e" d="M100 16.677C100 7.467 92.538 0 83.334 0H16.666C7.461 0 0 7.467 0 16.677v66.645C0 92.533 7.461 100 16.666 100h66.668C92.538 100 100 92.533 100 83.322V16.677zm-47.855-1.444c.239-.474.713-.711 1.186-.711 2.601.237 1.891 2.845-.71 4.031-1.183.001-.949-2.133-.476-3.32zm25.741 37.634c-1.685-1.088-3.256-2.102-4.216.064-.034.065-.069.135-.106.206-.245.463-.57 1.077-.366 1.691.483 1.294.638 1.376 1.063 1.598.195.102.451.234.829.538l.234.237c.119.119.119.176.119.236s0 .117.12.236c.134.137.19.193.217.265.018.05.018.111.018.211.238.236.238.474.238.474 0 .195-.369.393-.794.622-.604.326-1.338.719-1.338 1.274.12.237.356.474.564.682.206.209.385.387.385.504-.156.465-.41.525-.639.577-.119.026-.228.053-.311.135-.473 0-.707.712-.707.946-.076.756.229 1.603.556 2.501.698 1.932 1.478 4.094-1.264 6.037-.126.123-.643.119-1.315.11-1.884-.023-4.999-.063-4.129 2.735.206.607.625 1.046 1.06 1.493.575.597 1.172 1.216 1.307 2.299l-.471.476c-.61 0-1.448-.521-2.382-1.103-2.333-1.452-5.253-3.27-6.607 1.814-.117.234.171.756.49 1.342.33.599.69 1.259.69 1.741-.545.638-1.585.149-2.709-.378-1.795-.843-3.587-1.789-4.168 1.563L54 85.181v.234c-1-.061-.354-.343-.366-.712-.043-1.06-.228-2.835-3.035-2.132-.23 0-.631.401-1.009.838-.391.451-.839.938-1.199 1.06.234-.712-.252-1.424-.96-1.897-1.841-.851-2.417-.343-3.085.252-.447.399-.941.838-1.892.934-.495 0-.911-.664-1.378-1.422-.651-1.049-1.41-2.273-2.645-2.134-.708.403-1.025 1.111-1.307 1.734-.378.836-.685 1.518-1.768 1.109-1.021-1.359-.36-2.178.212-2.896.634-.781 1.164-1.441-.686-2.557-2.219-1.48-2.271.942-2.301 2.301-.009.382-.013.678-.065.781-.237.239-.71.474-.947.474-1.059-.825-.187-2.002.58-3.035.773-1.046 1.439-1.94-.106-2.179-1.257.208-2.327 2.461-2.883 3.634-.074.151-.139.286-.191.395.118-.829.53-1.719.947-2.606.412-.889.825-1.778.944-2.607 0-.239 0-.712-.237-1.186.473-1.185.473-3.082 0-5.453-.708-4.033 2.839-1.424 8.041 2.844 2.129 1.659 3.547.474 4.969-.948.944 2.607 3.074 4.031 6.384 4.268 9.226-.476 10.172-12.328 5.203-21.341-1.654-2.369-4.73-.946-2.837 6.641 2.366 9.484-.239 12.33-3.786 10.196-2.127-1.897-2.364-7.114 0-17.547.473-1.423-1.891-2.133-2.127-.71-2.837 7.351-3.786 13.276-3.076 17.071-2.127 1.422-4.491-.239-7.331-4.979-.534-1.072-.13-1.741.712-3.124.273-.449.595-.979.944-1.617 3.547-7.115-3.313-9.249-6.386-9.249-1.891-4.504-3.074-4.742-3.784-2.371-1.181 7.824-1.654 15.411-.946 22.525-.104.034-.204.069-.3.104-.564.195-1.055.369-2.066.369-.1 0-.156 0-.208-.018-.069-.025-.13-.082-.265-.219-.211-.213-.282-.428-.356-.662-.096-.286-.2-.605-.588-.999-.71-.473-3.076-2.131-2.603-2.843.265-.443.791-.752 1.324-1.066.899-.527 1.811-1.065 1.515-2.255 0-.035-.204-.185-.527-.422-1.85-1.367-7.608-5.62-1.365-7.639.226-.076.543-.102.758-.128.448-.057 1.078-.1 1.078-.585v-.236c0-2.02-1.666-1.689-2.956-1.363-1.135.282-2.287.56-2.622-.771-.325-1.152.916-.82 1.801-.587.391.102.696.186.77.113l.468-.237c2.223-.686 1.226-2.24.596-3.228-.243-.378-.431-.672-.366-.803.473-.238 2.365-.238 3.073 0 1.719-1.077.512-2.546-.434-3.695-.096-.115-.188-.228-.274-.336 0-.118.061-.013.117-.132.062-.119.118-.132.118-.132h3.313c2.839 0 7.331-3.78 9.226-6.389.161-.218.41-.947.725-1.724 1.055-2.606 2.837-7.058 4.476-4.135.173.348-.1.859-.382 1.424-.495.979-1.029 2.027.619 2.328.758.152 1.609-1.257 2.312-2.41.395-.65.743-1.224.999-1.395.712-.429 1.511-.342 2.292-.257.517.057 1.02.111 1.493.018 1.893-.474 3.309-5.217 3.074-6.166-.069-.143-.187-.353-.313-.581-.287-.524-.634-1.151-.634-1.316.239-.949 1.419-1.66 2.129-1.423.474.237.946.712.946.948-1.656 2.846-3.076 7.114.237 9.722.156.104.286.196.408.28.425.297.694.483 1.246.668.405-.508.681-1.017.957-1.525.366-.677.731-1.354 1.408-2.032.309-.311.847-.748 1.438-1.229 1.216-.989 2.659-2.165 2.819-2.803.063-.123.026-.468-.015-.904-.122-1.249-.317-3.241 1.433-2.89.121.119.178.237.238.356.057.118.118.236.235.354.646 1.725-.665 3.45-1.974 5.174-.133.171-.263.344-.391.517-.443.517-1.044 1.057-1.665 1.613-1.372 1.229-2.826 2.534-2.826 3.841 0 .473 0 .473.234.711.499.201.957-.447 1.445-1.135.664-.94 1.385-1.957 2.336-.999-.163.332-.56.634-.946.928-.714.547-1.394 1.063-.469 1.68 2.548-.196 4.122-1.859 5.931-3.774.373-.394.76-.8 1.163-1.206.147-.149.404-.529.712-.996 1.172-1.755 3.172-4.748 3.545-1.375-.236.236-.593.415-.944.593-.355.178-.712.356-.946.592-2.84 2.372-4.732 4.98-5.913 7.825l.473.474c.079.082.302-.034.567-.17.506-.263 1.17-.608 1.326.17.057.347-.026.849-.124 1.435-.302 1.813-.667 4.423 2.553 5.679C69.949 43.212 77 39.892 79 38.707v-.711c1-3.083 5.378 1.659 2.065 3.557-.085.043-.451.014-.946-.029-2.175-.192-7.537-.666-9.271 3.586-.238.711.938 5.453 2.118 5.453.041 0 .138-.006.287-.016 1.704-.108 9.84-.622 9.406 2.861-1.395 1.634-3.137.509-4.773-.541zm-47.025 1.962c.236-.71.709-1.186 1.419-1.186 1.891.239 2.603 4.268.471 5.219-.471.234-1.181.234-1.417-.238-.949-.713-.949-2.609-.473-3.795z"/>
</svg>