<?xml version="1.0" encoding="utf-8"?>
<!-- Generator: Adobe Illustrator 15.0.0, SVG Export Plug-In . SVG Version: 6.00 Build 0)  -->
<!DOCTYPE svg PUBLIC "-//W3C//DTD SVG 1.1//EN" "http://www.w3.org/Graphics/SVG/1.1/DTD/svg11.dtd" [
	<!ENTITY ns_extend "http://ns.adobe.com/Extensibility/1.0/">
	<!ENTITY ns_ai "http://ns.adobe.com/AdobeIllustrator/10.0/">
	<!ENTITY ns_graphs "http://ns.adobe.com/Graphs/1.0/">
	<!ENTITY ns_vars "http://ns.adobe.com/Variables/1.0/">
	<!ENTITY ns_imrep "http://ns.adobe.com/ImageReplacement/1.0/">
	<!ENTITY ns_sfw "http://ns.adobe.com/SaveForWeb/1.0/">
	<!ENTITY ns_custom "http://ns.adobe.com/GenericCustomNamespace/1.0/">
	<!ENTITY ns_adobe_xpath "http://ns.adobe.com/XPath/1.0/">
]>
<svg version="1.1" xmlns:x="&ns_extend;" xmlns:i="&ns_ai;" xmlns:graph="&ns_graphs;"
	 xmlns="http://www.w3.org/2000/svg" xmlns:xlink="http://www.w3.org/1999/xlink" x="0px" y="0px" width="100px" height="100px"
	 viewBox="0 0 100 100" enable-background="new 0 0 100 100" xml:space="preserve">
<metadata>
	<sfw  xmlns="&ns_sfw;">
		<slices></slices>
		<sliceSourceBounds  height="100" width="100" x="0" y="-100" bottomLeftOrigin="true"></sliceSourceBounds>
	</sfw>
</metadata>
<g id="icon">
	<path fill="#477061" d="M100,16.677C100,7.467,92.538,0,83.334,0H16.666C7.461,0,0,7.467,0,16.677v66.645
		C0,92.533,7.461,100,16.666,100h66.668C92.538,100,100,92.533,100,83.322V16.677z M52.145,15.233
		c0.239-0.474,0.713-0.711,1.186-0.711c2.601,0.237,1.891,2.845-0.71,4.031C51.438,18.554,51.672,16.42,52.145,15.233z
		 M77.886,52.867c-1.685-1.088-3.256-2.102-4.216,0.064c-0.034,0.065-0.069,0.135-0.106,0.206c-0.245,0.463-0.57,1.077-0.366,1.691
		c0.483,1.294,0.638,1.376,1.063,1.598c0.195,0.102,0.451,0.234,0.829,0.538l0.234,0.237c0.119,0.119,0.119,0.176,0.119,0.236
		s0,0.117,0.12,0.236c0.134,0.137,0.19,0.193,0.217,0.265c0.018,0.05,0.018,0.111,0.018,0.211c0.238,0.236,0.238,0.474,0.238,0.474
		c0,0.195-0.369,0.393-0.794,0.622c-0.604,0.326-1.338,0.719-1.338,1.274c0.12,0.237,0.356,0.474,0.564,0.682
		c0.206,0.209,0.385,0.387,0.385,0.504c-0.156,0.465-0.41,0.525-0.639,0.577c-0.119,0.026-0.228,0.053-0.311,0.135
		c-0.473,0-0.707,0.712-0.707,0.946c-0.076,0.756,0.229,1.603,0.556,2.501c0.698,1.932,1.478,4.094-1.264,6.037
		c-0.126,0.123-0.643,0.119-1.315,0.11c-1.884-0.023-4.999-0.063-4.129,2.735c0.206,0.607,0.625,1.046,1.06,1.493
		c0.575,0.597,1.172,1.216,1.307,2.299l-0.471,0.476c-0.61,0-1.448-0.521-2.382-1.103c-2.333-1.452-5.253-3.27-6.607,1.814
		c-0.117,0.234,0.171,0.756,0.49,1.342c0.33,0.599,0.69,1.259,0.69,1.741c-0.545,0.638-1.585,0.149-2.709-0.378
		c-1.795-0.843-3.587-1.789-4.168,1.563L54,85.181v0.234c-1-0.061-0.354-0.343-0.366-0.712c-0.043-1.06-0.228-2.835-3.035-2.132
		c-0.23,0-0.631,0.401-1.009,0.838c-0.391,0.451-0.839,0.938-1.199,1.06c0.234-0.712-0.252-1.424-0.96-1.897
		c-1.841-0.851-2.417-0.343-3.085,0.252c-0.447,0.399-0.941,0.838-1.892,0.934c-0.495,0-0.911-0.664-1.378-1.422
		c-0.651-1.049-1.41-2.273-2.645-2.134c-0.708,0.403-1.025,1.111-1.307,1.734c-0.378,0.836-0.685,1.518-1.768,1.109
		c-1.021-1.359-0.36-2.178,0.212-2.896c0.634-0.781,1.164-1.441-0.686-2.557c-2.219-1.48-2.271,0.942-2.301,2.301
		c-0.009,0.382-0.013,0.678-0.065,0.781c-0.237,0.239-0.71,0.474-0.947,0.474c-1.059-0.825-0.187-2.002,0.58-3.035
		c0.773-1.046,1.439-1.94-0.106-2.179c-1.257,0.208-2.327,2.461-2.883,3.634c-0.074,0.151-0.139,0.286-0.191,0.395
		c0.118-0.829,0.53-1.719,0.947-2.606c0.412-0.889,0.825-1.778,0.944-2.607c0-0.239,0-0.712-0.237-1.186
		c0.473-1.185,0.473-3.082,0-5.453c-0.708-4.033,2.839-1.424,8.041,2.844c2.129,1.659,3.547,0.474,4.969-0.948
		c0.944,2.607,3.074,4.031,6.384,4.268c9.226-0.476,10.172-12.328,5.203-21.341c-1.654-2.369-4.73-0.946-2.837,6.641
		c2.366,9.484-0.239,12.33-3.786,10.196c-2.127-1.897-2.364-7.114,0-17.547c0.473-1.423-1.891-2.133-2.127-0.71
		c-2.837,7.351-3.786,13.276-3.076,17.071c-2.127,1.422-4.491-0.239-7.331-4.979c-0.534-1.072-0.13-1.741,0.712-3.124
		c0.273-0.449,0.595-0.979,0.944-1.617c3.547-7.115-3.313-9.249-6.386-9.249c-1.891-4.504-3.074-4.742-3.784-2.371
		c-1.181,7.824-1.654,15.411-0.946,22.525c-0.104,0.034-0.204,0.069-0.3,0.104c-0.564,0.195-1.055,0.369-2.066,0.369
		c-0.1,0-0.156,0-0.208-0.018c-0.069-0.025-0.13-0.082-0.265-0.219c-0.211-0.213-0.282-0.428-0.356-0.662
		c-0.096-0.286-0.2-0.605-0.588-0.999c-0.71-0.473-3.076-2.131-2.603-2.843c0.265-0.443,0.791-0.752,1.324-1.066
		c0.899-0.527,1.811-1.065,1.515-2.255c0-0.035-0.204-0.185-0.527-0.422c-1.85-1.367-7.608-5.62-1.365-7.639
		c0.226-0.076,0.543-0.102,0.758-0.128C22.37,53.935,23,53.892,23,53.407v-0.236c0-2.02-1.666-1.689-2.956-1.363
		c-1.135,0.282-2.287,0.56-2.622-0.771c-0.325-1.152,0.916-0.82,1.801-0.587c0.391,0.102,0.696,0.186,0.77,0.113l0.468-0.237
		c2.223-0.686,1.226-2.24,0.596-3.228c-0.243-0.378-0.431-0.672-0.366-0.803c0.473-0.238,2.365-0.238,3.073,0
		c1.719-1.077,0.512-2.546-0.434-3.695c-0.096-0.115-0.188-0.228-0.274-0.336c0-0.118,0.061-0.013,0.117-0.132
		C23.235,42.013,23.291,42,23.291,42h3.313c2.839,0,7.331-3.78,9.226-6.389c0.161-0.218,0.41-0.947,0.725-1.724
		c1.055-2.606,2.837-7.058,4.476-4.135c0.173,0.348-0.1,0.859-0.382,1.424c-0.495,0.979-1.029,2.027,0.619,2.328
		c0.758,0.152,1.609-1.257,2.312-2.41c0.395-0.65,0.743-1.224,0.999-1.395c0.712-0.429,1.511-0.342,2.292-0.257
		c0.517,0.057,1.02,0.111,1.493,0.018c1.893-0.474,3.309-5.217,3.074-6.166c-0.069-0.143-0.187-0.353-0.313-0.581
		c-0.287-0.524-0.634-1.151-0.634-1.316c0.239-0.949,1.419-1.66,2.129-1.423c0.474,0.237,0.946,0.712,0.946,0.948
		c-1.656,2.846-3.076,7.114,0.237,9.722c0.156,0.104,0.286,0.196,0.408,0.28c0.425,0.297,0.694,0.483,1.246,0.668
		c0.405-0.508,0.681-1.017,0.957-1.525c0.366-0.677,0.731-1.354,1.408-2.032c0.309-0.311,0.847-0.748,1.438-1.229
		c1.216-0.989,2.659-2.165,2.819-2.803c0.063-0.123,0.026-0.468-0.015-0.904c-0.122-1.249-0.317-3.241,1.433-2.89
		c0.121,0.119,0.178,0.237,0.238,0.356c0.057,0.118,0.118,0.236,0.235,0.354c0.646,1.725-0.665,3.45-1.974,5.174
		c-0.133,0.171-0.263,0.344-0.391,0.517c-0.443,0.517-1.044,1.057-1.665,1.613c-1.372,1.229-2.826,2.534-2.826,3.841
		c0,0.473,0,0.473,0.234,0.711c0.499,0.201,0.957-0.447,1.445-1.135c0.664-0.94,1.385-1.957,2.336-0.999
		c-0.163,0.332-0.56,0.634-0.946,0.928c-0.714,0.547-1.394,1.063-0.469,1.68c2.548-0.196,4.122-1.859,5.931-3.774
		c0.373-0.394,0.76-0.8,1.163-1.206c0.147-0.149,0.404-0.529,0.712-0.996c1.172-1.755,3.172-4.748,3.545-1.375
		c-0.236,0.236-0.593,0.415-0.944,0.593c-0.355,0.178-0.712,0.356-0.946,0.592c-2.84,2.372-4.732,4.98-5.913,7.825l0.473,0.474
		c0.079,0.082,0.302-0.034,0.567-0.17c0.506-0.263,1.17-0.608,1.326,0.17c0.057,0.347-0.026,0.849-0.124,1.435
		c-0.302,1.813-0.667,4.423,2.553,5.679C69.949,43.212,77,39.892,79,38.707v-0.711c1-3.083,5.378,1.659,2.065,3.557
		c-0.085,0.043-0.451,0.014-0.946-0.029c-2.175-0.192-7.537-0.666-9.271,3.586c-0.238,0.711,0.938,5.453,2.118,5.453
		c0.041,0,0.138-0.006,0.287-0.016c1.704-0.108,9.84-0.622,9.406,2.861C81.264,55.042,79.522,53.917,77.886,52.867z M30.861,54.829
		c0.236-0.71,0.709-1.186,1.419-1.186c1.891,0.239,2.603,4.268,0.471,5.219c-0.471,0.234-1.181,0.234-1.417-0.238
		C30.385,57.911,30.385,56.015,30.861,54.829z"/>
</g>
<g id="illustrator">
</g>
</svg>
