<svg xmlns="http://www.w3.org/2000/svg" width="100" height="100" viewBox="0 0 100 100" xml:space="preserve">
  <path fill="#77b59e" d="M100 16.677C100 7.467 92.538 0 83.334 0H16.666C7.461 0 0 7.467 0 16.677v66.645C0 92.533 7.461 100 16.666 100h66.668C92.538 100 100 92.533 100 83.322V16.677zM70.121 81.64c-2.274 1.604-6.671 3.798-13.044 3.798-9.896 0-21.077-4.4-21.077-20.812V47h-5.048C29.585 47 28 46.239 28 44.875v-9.106c0-1.496 1.175-2.818 2.586-3.316 3.431-1.212 9.639-4.564 10.643-14.973.146-1.536 1.523-2.48 3.067-2.48h9.856c1.346 0 2.848.59 2.848 1.936V31h9.563C67.928 31 69 32.388 69 33.752v11.122C69 46.241 67.928 47 66.563 47H57v16.42c0 3.65 1.557 5.05 3.238 5.05 1.322 0 3.512-.578 5.196-1.063 1.193-.344 2.302.115 2.799 1.477.496 1.356 3.128 8.994 3.128 8.994.486 1.383-.039 2.913-1.24 3.762z"/>
</svg>