<?xml version="1.0" encoding="utf-8"?>
<!-- Generator: Adobe Illustrator 15.0.0, SVG Export Plug-In . SVG Version: 6.00 Build 0)  -->
<!DOCTYPE svg PUBLIC "-//W3C//DTD SVG 1.1//EN" "http://www.w3.org/Graphics/SVG/1.1/DTD/svg11.dtd" [
	<!ENTITY ns_extend "http://ns.adobe.com/Extensibility/1.0/">
	<!ENTITY ns_ai "http://ns.adobe.com/AdobeIllustrator/10.0/">
	<!ENTITY ns_graphs "http://ns.adobe.com/Graphs/1.0/">
	<!ENTITY ns_vars "http://ns.adobe.com/Variables/1.0/">
	<!ENTITY ns_imrep "http://ns.adobe.com/ImageReplacement/1.0/">
	<!ENTITY ns_sfw "http://ns.adobe.com/SaveForWeb/1.0/">
	<!ENTITY ns_custom "http://ns.adobe.com/GenericCustomNamespace/1.0/">
	<!ENTITY ns_adobe_xpath "http://ns.adobe.com/XPath/1.0/">
]>
<svg version="1.1" id="icon" xmlns:x="&ns_extend;" xmlns:i="&ns_ai;" xmlns:graph="&ns_graphs;"
	 xmlns="http://www.w3.org/2000/svg" xmlns:xlink="http://www.w3.org/1999/xlink" x="0px" y="0px" width="100px" height="100px"
	 viewBox="0 0 100 100" enable-background="new 0 0 100 100" xml:space="preserve">
<metadata>
	<sfw  xmlns="&ns_sfw;">
		<slices></slices>
		<sliceSourceBounds  height="100" width="100" x="0" y="-100" bottomLeftOrigin="true"></sliceSourceBounds>
	</sfw>
</metadata>
<path fill="#477061" d="M100,16.677C100,7.467,92.538,0,83.334,0H16.666C7.461,0,0,7.467,0,16.677v66.645
	C0,92.533,7.461,100,16.666,100h66.668C92.538,100,100,92.533,100,83.322V16.677z M78.017,35.602
	c0.022,0.615,0.039,1.246,0.039,1.872c0,19.097-14.54,41.122-41.126,41.122c-8.165,0-15.765-2.389-22.156-6.496
	c1.125,0.138,2.273,0.203,3.443,0.203c6.775,0,13.008-2.306,17.95-6.183c-6.32-0.115-11.657-4.305-13.502-10.043
	c0.884,0.176,1.79,0.264,2.724,0.264c1.318,0,2.796-0.176,4.004-0.505C22.786,54.501,18,48.665,18,41.658c0-0.06,0-0.121,0-0.181
	c2,1.082,3.979,1.735,6.352,1.812c-3.882-2.597-6.53-7.023-6.53-12.036c0-2.647,0.658-5.129,1.905-7.27
	c7.133,8.747,17.754,14.501,29.769,15.105c-0.247-1.06-0.391-2.164-0.391-3.295c0-7.983,6.467-14.452,14.451-14.452
	c4.156,0,7.909,1.751,10.545,4.563c3.289-0.648,6.391-1.851,9.18-3.503c-1.076,3.372-3.372,6.205-6.359,7.995
	c2.927-0.351,5.709-1.125,8.307-2.279C83.288,31.017,80.84,33.565,78.017,35.602z"/>
</svg>
