<svg xmlns="http://www.w3.org/2000/svg" width="100" height="100" viewBox="0 0 100 100" xml:space="preserve">
  <path fill="#77b59e" d="M100 16.677C100 7.467 92.538 0 83.334 0H16.666C7.461 0 0 7.467 0 16.677v66.645C0 92.533 7.461 100 16.666 100h66.668C92.538 100 100 92.533 100 83.322V16.677zM78.017 35.602c.022.615.039 1.246.039 1.872 0 19.097-14.54 41.122-41.126 41.122-8.165 0-15.765-2.389-22.156-6.496 1.125.138 2.273.203 3.443.203 6.775 0 13.008-2.306 17.95-6.183-6.32-.115-11.657-4.305-13.502-10.043.884.176 1.79.264 2.724.264 1.318 0 2.796-.176 4.004-.505C22.786 54.501 18 48.665 18 41.658v-.181c2 1.082 3.979 1.735 6.352 1.812-3.882-2.597-6.53-7.023-6.53-12.036 0-2.647.658-5.129 1.905-7.27 7.133 8.747 17.754 14.501 29.769 15.105-.247-1.06-.391-2.164-.391-3.295 0-7.983 6.467-14.452 14.451-14.452 4.156 0 7.909 1.751 10.545 4.563 3.289-.648 6.391-1.851 9.18-3.503-1.076 3.372-3.372 6.205-6.359 7.995 2.927-.351 5.709-1.125 8.307-2.279-1.941 2.9-4.389 5.448-7.212 7.485z"/>
</svg>