<svg xmlns="http://www.w3.org/2000/svg" width="100" height="100" viewBox="0 0 100 100" xml:space="preserve">
  <path fill="#77b59e" d="M100 16.677C100 7.467 92.538 0 83.334 0H16.666C7.461 0 0 7.467 0 16.677v66.645C0 92.533 7.461 100 16.666 100h66.668C92.538 100 100 92.533 100 83.322V16.677zM82.563 72H74.5c-1.208 0-2.323-.697-2.92-1.738-2.075-3.605-8.009-11.35-13.308-11.35-.063 0-.064-.016-.129-.013-1.802.046-3.143 1.565-3.143 3.356v6.236c0 1.968-1.764 3.555-3.737 3.36-20.033-1.982-31.304-20.274-36.782-39.504-.611-2.146 1.017-4.28 3.266-4.28l5.988.015c1.469.003 2.76.938 3.216 2.32 1.569 4.779 5.928 14.774 10.954 19.668 1.485 1.447 3.985.438 3.985-1.626l.01-11.868c0-1.141-.373-2.251-1.063-3.164l-1.836-2.636c-.839-1.11-.041-2.695 1.359-2.695l11.18.126c1.876 0 3.459 1.505 3.459 3.365V45c0 2.171 2.515 3.353 4.169 1.926 2.949-2.547 7.136-6.948 12.052-17.021.559-1.143 1.705-1.905 3.71-1.905h6.086c2.096 0 3.582 2.101 2.865 4.05-1.629 4.413-6.358 11.736-12.274 18.092-.771.83-.682 2.139.167 2.89 3.101 2.741 10.606 9.115 13.521 14.36C86.429 69.433 84.917 72 82.563 72z"/>
</svg>