<svg xmlns="http://www.w3.org/2000/svg" width="37.5" height="37.5" viewBox="6.25 6.25 37.5 37.5" xml:space="preserve">
  <path fill="#77B59E" d="M11.979 6.25c-3.146 0-5.729 2.583-5.729 5.729v26.042c0 3.145 2.583 5.729 5.729 5.729h26.042c3.145 0 5.729-2.584 5.729-5.729V11.979c0-3.146-2.584-5.729-5.729-5.729H11.979zm0 3.125h26.042c1.456 0 2.604 1.147 2.604 2.604v26.042c0 1.456-1.147 2.604-2.604 2.604H11.979c-1.457 0-2.604-1.147-2.604-2.604V11.979c0-1.457 1.147-2.604 2.604-2.604zm19.777 7.269c-.412.01-.804.183-1.09.48L25 22.791l-5.666-5.666c-.294-.303-.699-.474-1.121-.474-.863 0-1.563.7-1.563 1.563 0 .422.171.826.474 1.121L22.791 25l-5.666 5.666c-.623.598-.643 1.587-.045 2.209.598.623 1.587.643 2.209.045.015-.014.03-.029.045-.045L25 27.209l5.666 5.666c.598.623 1.587.643 2.209.045.623-.598.643-1.586.045-2.209-.014-.016-.029-.03-.045-.045L27.209 25l5.666-5.666c.623-.598.644-1.587.046-2.209-.304-.317-.726-.491-1.165-.481z"/>
</svg>
